<?xml version="1.0" encoding="UTF-8" standalone="no"?>
<!DOCTYPE svg PUBLIC "-//W3C//DTD SVG 1.1//EN"
 "http://www.w3.org/Graphics/SVG/1.1/DTD/svg11.dtd">
<!-- Generated by graphviz version 2.24.0 (20090616.2323)
 -->
<!-- Title: models_diagram Pages: 1 -->
<svg width="313pt" height="316pt"
 viewBox="0.00 0.00 313.00 316.00" xmlns="http://www.w3.org/2000/svg" xmlns:xlink="http://www.w3.org/1999/xlink">
<g id="graph1" class="graph" transform="scale(1 1) rotate(0) translate(4 312)">
<title>models_diagram</title>
<polygon fill="white" stroke="white" points="-4,5 -4,-312 310,-312 310,5 -4,5"/>
<!-- Profile -->
<g id="node1" class="node"><title>Profile</title>
<polyline fill="none" stroke="black" points="97.5,-235 208.5,-235 "/>
<path fill="none" stroke="black" d="M208.5,-235C214.5,-235 220.5,-241 220.5,-247"/>
<polyline fill="none" stroke="black" points="220.5,-247 220.5,-295 "/>
<path fill="none" stroke="black" d="M220.5,-295C220.5,-301 214.5,-307 208.5,-307"/>
<polyline fill="none" stroke="black" points="208.5,-307 97.5,-307 "/>
<path fill="none" stroke="black" d="M97.5,-307C91.5,-307 85.5,-301 85.5,-295"/>
<polyline fill="none" stroke="black" points="85.5,-295 85.5,-247 "/>
<path fill="none" stroke="black" d="M85.5,-247C85.5,-241 91.5,-235 97.5,-235"/>
<text text-anchor="middle" x="153" y="-290.4" font-family="Times,serif" font-size="14.00">Profile</text>
<polyline fill="none" stroke="black" points="85.5,-285 220.5,-285 "/>
<text text-anchor="start" x="93.5" y="-268.4" font-family="Times,serif" font-size="14.00">name :string</text>
<text text-anchor="start" x="93.5" y="-254.4" font-family="Times,serif" font-size="14.00">created_at :datetime</text>
<text text-anchor="start" x="93.5" y="-240.4" font-family="Times,serif" font-size="14.00">updated_at :datetime</text>
</g>
<!-- Query -->
<g id="node2" class="node"><title>Query</title>
<polyline fill="none" stroke="black" points="11.5,-8 122.5,-8 "/>
<path fill="none" stroke="black" d="M122.5,-8C128.5,-8 134.5,-14 134.5,-20"/>
<polyline fill="none" stroke="black" points="134.5,-20 134.5,-54 "/>
<path fill="none" stroke="black" d="M134.5,-54C134.5,-60 128.5,-66 122.5,-66"/>
<polyline fill="none" stroke="black" points="122.5,-66 11.5,-66 "/>
<path fill="none" stroke="black" d="M11.5,-66C5.5,-66 -0.5,-60 -0.5,-54"/>
<polyline fill="none" stroke="black" points="-0.5,-54 -0.5,-20 "/>
<path fill="none" stroke="black" d="M-0.5,-20C-0.5,-14 5.5,-8 11.5,-8"/>
<text text-anchor="middle" x="67" y="-49.4" font-family="Times,serif" font-size="14.00">Query</text>
<polyline fill="none" stroke="black" points="-0.5,-44 134.5,-44 "/>
<text text-anchor="start" x="7.5" y="-27.4" font-family="Times,serif" font-size="14.00">created_at :datetime</text>
<text text-anchor="start" x="7.5" y="-13.4" font-family="Times,serif" font-size="14.00">updated_at :datetime</text>
</g>
<!-- Profile&#45;&gt;Query -->
<g id="edge6" class="edge"><title>Profile&#45;&gt;Query</title>
<path fill="none" stroke="black" d="M97.4984,-227.684C89.3225,-218.759 81.9862,-208.765 77,-198 58.8243,-158.761 58.9368,-108.282 61.8881,-74.3993"/>
<polygon fill="black" stroke="black" points="97.5623,-227.75 101.303,-238.058 101.046,-231.336 104.531,-234.922 104.531,-234.922 104.531,-234.922 101.046,-231.336 107.758,-231.787 97.5623,-227.75 97.5623,-227.75"/>
<ellipse fill="black" stroke="black" cx="62.3026" cy="-70.1407" rx="4" ry="4"/>
</g>
<!-- Request -->
<g id="node3" class="node"><title>Request</title>
<polyline fill="none" stroke="black" points="97.5,-111 208.5,-111 "/>
<path fill="none" stroke="black" d="M208.5,-111C214.5,-111 220.5,-117 220.5,-123"/>
<polyline fill="none" stroke="black" points="220.5,-123 220.5,-185 "/>
<path fill="none" stroke="black" d="M220.5,-185C220.5,-191 214.5,-197 208.5,-197"/>
<polyline fill="none" stroke="black" points="208.5,-197 97.5,-197 "/>
<path fill="none" stroke="black" d="M97.5,-197C91.5,-197 85.5,-191 85.5,-185"/>
<polyline fill="none" stroke="black" points="85.5,-185 85.5,-123 "/>
<path fill="none" stroke="black" d="M85.5,-123C85.5,-117 91.5,-111 97.5,-111"/>
<text text-anchor="middle" x="153" y="-180.4" font-family="Times,serif" font-size="14.00">Request</text>
<polyline fill="none" stroke="black" points="85.5,-175 220.5,-175 "/>
<text text-anchor="start" x="93.5" y="-158.4" font-family="Times,serif" font-size="14.00">action :string</text>
<text text-anchor="start" x="93.5" y="-144.4" font-family="Times,serif" font-size="14.00">name :string</text>
<text text-anchor="start" x="93.5" y="-130.4" font-family="Times,serif" font-size="14.00">created_at :datetime</text>
<text text-anchor="start" x="93.5" y="-116.4" font-family="Times,serif" font-size="14.00">updated_at :datetime</text>
</g>
<!-- Profile&#45;&gt;Request -->
<g id="edge2" class="edge"><title>Profile&#45;&gt;Request</title>
<path fill="none" stroke="black" d="M153,-224.858C153,-219.148 153,-213.275 153,-207.468"/>
<polygon fill="black" stroke="black" points="153,-224.941 148.5,-234.941 153,-229.941 153,-234.941 153,-234.941 153,-234.941 153,-229.941 157.5,-234.942 153,-224.941 153,-224.941"/>
<polygon fill="black" stroke="black" points="153,-207.137 157.5,-197.137 153,-202.137 153,-197.137 153,-197.137 153,-197.137 153,-202.137 148.5,-197.137 153,-207.137 153,-207.137"/>
</g>
<!-- Response -->
<g id="node4" class="node"><title>Response</title>
<polyline fill="none" stroke="black" points="182.5,-1 293.5,-1 "/>
<path fill="none" stroke="black" d="M293.5,-1C299.5,-1 305.5,-7 305.5,-13"/>
<polyline fill="none" stroke="black" points="305.5,-13 305.5,-61 "/>
<path fill="none" stroke="black" d="M305.5,-61C305.5,-67 299.5,-73 293.5,-73"/>
<polyline fill="none" stroke="black" points="293.5,-73 182.5,-73 "/>
<path fill="none" stroke="black" d="M182.5,-73C176.5,-73 170.5,-67 170.5,-61"/>
<polyline fill="none" stroke="black" points="170.5,-61 170.5,-13 "/>
<path fill="none" stroke="black" d="M170.5,-13C170.5,-7 176.5,-1 182.5,-1"/>
<text text-anchor="middle" x="238" y="-56.4" font-family="Times,serif" font-size="14.00">Response</text>
<polyline fill="none" stroke="black" points="170.5,-51 305.5,-51 "/>
<text text-anchor="start" x="178.5" y="-34.4" font-family="Times,serif" font-size="14.00">content :string</text>
<text text-anchor="start" x="178.5" y="-20.4" font-family="Times,serif" font-size="14.00">created_at :datetime</text>
<text text-anchor="start" x="178.5" y="-6.4" font-family="Times,serif" font-size="14.00">updated_at :datetime</text>
</g>
<!-- Profile&#45;&gt;Response -->
<g id="edge4" class="edge"><title>Profile&#45;&gt;Response</title>
<path fill="none" stroke="black" d="M208.557,-227.71C216.727,-218.782 224.047,-208.78 229,-198 245.505,-162.077 246.539,-116.795 244.149,-83.4103"/>
<polygon fill="black" stroke="black" points="208.494,-227.775 198.299,-231.814 205.011,-231.362 201.528,-234.949 201.528,-234.949 201.528,-234.949 205.011,-231.362 204.756,-238.084 208.494,-227.775 208.494,-227.775"/>
<polygon fill="black" stroke="black" points="244.113,-82.9804 247.752,-72.636 243.69,-77.9983 243.268,-73.0162 243.268,-73.0162 243.268,-73.0162 243.69,-77.9983 238.784,-73.3964 244.113,-82.9804 244.113,-82.9804"/>
</g>
<!-- Request&#45;&gt;Query -->
<g id="edge10" class="edge"><title>Request&#45;&gt;Query</title>
<path fill="none" stroke="black" d="M115.258,-102.653C107.877,-92.6112 100.286,-82.2839 93.3724,-72.8787"/>
<polygon fill="black" stroke="black" points="115.298,-102.708 117.595,-113.431 118.26,-106.737 121.221,-110.766 121.221,-110.766 121.221,-110.766 118.26,-106.737 124.847,-108.101 115.298,-102.708 115.298,-102.708"/>
<ellipse fill="black" stroke="black" cx="90.84" cy="-69.4335" rx="4.00002" ry="4.00002"/>
</g>
<!-- Request&#45;&gt;Response -->
<g id="edge8" class="edge"><title>Request&#45;&gt;Response</title>
<path fill="none" stroke="black" d="M189.312,-104.018C195.197,-95.9165 201.245,-87.5922 206.99,-79.6848"/>
<ellipse fill="none" stroke="black" cx="186.76" cy="-107.53" rx="4.00002" ry="4.00002"/>
<ellipse fill="black" stroke="black" cx="209.383" cy="-76.3908" rx="4.00002" ry="4.00002"/>
</g>
</g>
</svg>
